<svg width="1200" height="720" viewBox="0 0 1200 720" fill="none" xmlns="http://www.w3.org/2000/svg">
  <rect width="1200" height="720" fill="#F5F2EC"/>
  <rect x="72" y="72" width="1056" height="576" rx="28" fill="#FFFDF8" stroke="#171717" stroke-opacity="0.12"/>
  <rect x="122" y="140" width="410" height="420" rx="28" fill="#171717"/>
  <rect x="170" y="190" width="152" height="20" rx="10" fill="#74D8BF"/>
  <path d="M170 462L236 394L286 428L360 302L430 344L484 252" stroke="#E1B85A" stroke-width="18" stroke-linecap="round" stroke-linejoin="round"/>
  <circle cx="236" cy="394" r="12" fill="#FFFDF8"/>
  <circle cx="286" cy="428" r="12" fill="#FFFDF8"/>
  <circle cx="360" cy="302" r="12" fill="#FFFDF8"/>
  <circle cx="430" cy="344" r="12" fill="#FFFDF8"/>
  <rect x="602" y="154" width="286" height="26" rx="13" fill="#0F6B57"/>
  <rect x="602" y="214" width="388" height="18" rx="9" fill="#171717" fill-opacity="0.18"/>
  <rect x="602" y="250" width="332" height="18" rx="9" fill="#171717" fill-opacity="0.12"/>
  <rect x="602" y="286" width="364" height="18" rx="9" fill="#171717" fill-opacity="0.12"/>
  <rect x="602" y="368" width="190" height="88" rx="20" fill="#171717"/>
  <rect x="816" y="368" width="174" height="88" rx="20" fill="#C99A2E" fill-opacity="0.92"/>
  <text x="124" y="618" fill="#171717" font-family="Inter, Arial, sans-serif" font-size="52" font-weight="700">StockLife Todo</text>
  <text x="124" y="660" fill="#6D6A63" font-family="Inter, Arial, sans-serif" font-size="30">Personal Tool x Visualization x Web App</text>
</svg>
